<svg id="Layer_1" data-name="Layer 1" xmlns="http://www.w3.org/2000/svg" viewBox="0 0 1275.59 695.22"><defs><style>.cls-1{fill:#ed1c24;}.cls-2{fill:#fbaa19;}</style></defs><path class="cls-1" d="M232.93,995.26a42.48,42.48,0,0,1,5.81-.24c3.83-.12,7.51-.12,11-.12H1274.82c2.8,0,6.31,0,10.54.12a50.29,50.29,0,0,1,6.31.24v5.65s-.72.06-2.12.1-2.45,0-3.15.08c0,0-.36,0-1,0s-1.06,0-1.06,0l-7.36.12H247.66l-14.73-.36Z" transform="translate(-51.33 -331.56)"/><path class="cls-1" d="M232.93,1008.73c0-.22,1.94-.48,5.81-.7s7.51-.39,11-.39H1274.82q4.2,0,10.54.39c4.19.22,6.31.48,6.31.7v17.07a14,14,0,0,1-2.12.2c-1.39.09-2.45.16-3.15.27,0,.06-.36.09-1,.12a2.83,2.83,0,0,0-1.06.09l-7.36.29H247.66l-14.73-1Z" transform="translate(-51.33 -331.56)"/><path class="cls-1" d="M245.69,670.24l5.58-7H354.86l5.63,7V974.08c0,1.34-.8,3-2.39,5s-3,3-4,3H251.27l-5.58-7Z" transform="translate(-51.33 -331.56)"/><path class="cls-2" d="M972.76,670.24l5.63-7H1082l5.61,7V974.08c0,1.34-.82,3-2.44,5s-2.91,3-4,3H978.39l-5.63-7Z" transform="translate(-51.33 -331.56)"/><path class="cls-2" d="M1214.83,663.22a17.76,17.76,0,0,1,4.68.6c14.56,5.59,26.39,13,35.51,22.55s16.25,22.63,21.44,39.46c.52,1.72,1.08,3.29,1.66,4.79a16,16,0,0,1,.81,5.43V909.27c0,.21-.16,1-.43,2.54a10.7,10.7,0,0,1-1,3.18c-1.28,4.48-2.3,8.14-3,10.89a56.57,56.57,0,0,1-3.87,9.9,86.49,86.49,0,0,1-10.78,16.93,103.82,103.82,0,0,1-14.49,14.89,74.35,74.35,0,0,1-16.76,10.54,42.62,42.62,0,0,1-17.65,4h-4.69a23.33,23.33,0,0,1-2.53-1.78,3.51,3.51,0,0,1-1.36-2.7v-310l3.89-4.45h8.57Z" transform="translate(-51.33 -331.56)"/><path class="cls-2" d="M1100.94,703.9l-.6-.62V665.37c.38-.34.6-.52.6-.63.4-.21,1-.52,1.72-.92a4.94,4.94,0,0,1,1.39-.6h81.2a19,19,0,0,0,2.19.76l.64.27c.4.25.88.6,1.56,1.12v37.91c0,.49-.68,1.05-1.9,1.59a7.77,7.77,0,0,1-3.09.88h-79.36l-1.24-.32Z" transform="translate(-51.33 -331.56)"/><path class="cls-2" d="M1100.94,980.29l-.6-.64V941.77c.38-.34.6-.52.6-.64.4-.2,1-.52,1.72-.92a4.4,4.4,0,0,1,1.39-.64h81.2a14.06,14.06,0,0,0,2.19.78l.64.3a18.73,18.73,0,0,1,1.56,1.12v37.88c0,.52-.68,1-1.9,1.62a7.68,7.68,0,0,1-3.09.86h-79.36l-1.24-.32Z" transform="translate(-51.33 -331.56)"/><path class="cls-2" d="M613.94,650.49c0,39.87,18.08,60.83,31.85,68.53V581.87C632,589.57,613.94,610.55,613.94,650.49Z" transform="translate(-51.33 -331.56)"/><path class="cls-1" d="M645.79,581.87h0V719h0c13.85-7.7,31.93-28.66,31.93-68.53S659.64,589.57,645.79,581.87Z" transform="translate(-51.33 -331.56)"/><path class="cls-1" d="M514.9,715.17c-4.89-5.21-9.62-7.6-13.58-7.6h-60c-3.08,0-4.93,1.59-4.06,4a6.77,6.77,0,0,0,1.22,2S616.09,907,635.79,924.44c9.92,8.85,13.27,8.31,19.86,1.64C669.46,912.19,683,895.82,683,895.82S581.92,787,514.9,715.17Z" transform="translate(-51.33 -331.56)"/><path class="cls-2" d="M886.58,663.22H803.39v.08H787.66c-8.82,0-11.26,2.33-14.81,7.66-1.6,2.16-2.87,4.33-4.19,6.23-15.49,21.91-43.53,63-54.23,78.32C700.84,775,648,849,646.77,850.6c14.71,16.1,24.53,26.66,38.56,42.29.26-.3,88.18-125.56,98.1-139.89,4.65-6.71,8.7-13,12.91-13.18h6.93l10-.08h44.07l16.24-28.1s14.57-24.83,19.2-33.21C898.47,668.21,897.59,663.22,886.58,663.22Z" transform="translate(-51.33 -331.56)"/><path class="cls-2" d="M937.29,395c16,0,22.72,1.37,35.45,6.4,7.84,3.12,18.9,10.72,21.62,12.58l329.58,221.82c6.49,4.47.9,7.79-2.73,10.54s-7.23,4.16-10.88,4.16H966.17c-8.18,0-17.44-2.2-27.88-6.47s-18.88-7.83-25.17-11c-47.7-23.79-469.84-238-469.84-238Z" transform="translate(-51.33 -331.56)"/><path class="cls-1" d="M56.31,635.12S465.68,380.3,518,349.22c10.54-6.15,23.11-17.66,50.58-17.66,90.65,0,373.91.35,513.57.35C1006.07,368.86,467.47,634.48,446.64,644l-21.78,6.47H64.42c-1.8,0-5.13-.94-9-3.94C50.15,642.62,49.51,639.15,56.31,635.12Z" transform="translate(-51.33 -331.56)"/></svg>